<svg width="11" height="8" viewBox="0 0 11 8" fill="none" xmlns="http://www.w3.org/2000/svg">
<path d="M8.00224 0.580642C8.32298 0.260144 8.94053 0.357893 9.38194 0.799302C9.82335 1.24071 9.9211 1.85827 9.6006 2.179L4.46807 7.31154C4.14737 7.63223 3.52985 7.53436 3.08836 7.09288C2.64688 6.6514 2.54901 6.03387 2.86971 5.71318L8.00224 0.580642Z" fill="#121212"/>
<path d="M0.60543 4.60946C0.271043 4.27495 0.357673 3.64623 0.799119 3.20479C1.24057 2.76334 1.86928 2.67671 2.20379 3.0111L4.88044 5.68775C5.21493 6.02224 5.12824 6.65094 4.68675 7.09242C4.24527 7.5339 3.61657 7.6206 3.28208 7.28611L0.60543 4.60946Z" fill="#121212"/>
</svg>
