<svg width="14" height="11" viewBox="0 0 14 11" fill="none" xmlns="http://www.w3.org/2000/svg">
<path d="M11.3978 0.799358C11.8393 0.358096 12.5547 0.357949 12.9961 0.799358C13.4376 1.24077 13.4374 1.95622 12.9961 2.39772L5.93038 9.46349C5.48889 9.90497 4.7735 9.90497 4.33202 9.46349C3.89053 9.022 3.89053 8.30661 4.33202 7.86513L11.3978 0.799358Z" fill="#121212"/>
<path d="M0.799161 5.93063C0.357789 5.48914 0.357715 4.77372 0.799161 4.33227C1.24061 3.89082 1.95603 3.8909 2.39752 4.33227L5.93041 7.86515C6.37189 8.30664 6.37189 9.02203 5.93041 9.46352C5.48892 9.905 4.77353 9.905 4.33205 9.46352L0.799161 5.93063Z" fill="#121212"/>
</svg>
